<mxfile host="app.diagrams.net" agent="Mozilla/5.0 (Windows NT 10.0; Win64; x64) AppleWebKit/537.36 (KHTML, like Gecko) Chrome/138.0.0.0 Safari/537.36" version="28.0.4">
  <diagram name="페이지-1" id="7i2MswOVwMqAlRVXBMPl">
    <mxGraphModel dx="1426" dy="1912" grid="1" gridSize="10" guides="1" tooltips="1" connect="1" arrows="1" fold="1" page="1" pageScale="1" pageWidth="827" pageHeight="1169" math="0" shadow="0">
      <root>
        <mxCell id="0" />
        <mxCell id="1" parent="0" />
        <mxCell id="PoDpwjfyyqHmn3xEaWa9-1" value="" style="endArrow=classic;html=1;rounded=0;exitX=1;exitY=0;exitDx=0;exitDy=0;entryX=0;entryY=0.25;entryDx=0;entryDy=0;" edge="1" parent="1" source="PoDpwjfyyqHmn3xEaWa9-17">
          <mxGeometry width="50" height="50" relative="1" as="geometry">
            <mxPoint x="199" y="-867" as="sourcePoint" />
            <mxPoint x="539" y="-1021.6300000000001" as="targetPoint" />
          </mxGeometry>
        </mxCell>
        <mxCell id="PoDpwjfyyqHmn3xEaWa9-4" style="edgeStyle=orthogonalEdgeStyle;rounded=0;orthogonalLoop=1;jettySize=auto;html=1;entryX=0.5;entryY=0;entryDx=0;entryDy=0;" edge="1" parent="1" source="PoDpwjfyyqHmn3xEaWa9-5" target="PoDpwjfyyqHmn3xEaWa9-22">
          <mxGeometry relative="1" as="geometry" />
        </mxCell>
        <mxCell id="PoDpwjfyyqHmn3xEaWa9-10" value="" style="endArrow=classic;html=1;rounded=0;exitX=1;exitY=0.5;exitDx=0;exitDy=0;entryX=0;entryY=0.5;entryDx=0;entryDy=0;edgeStyle=orthogonalEdgeStyle;" edge="1" parent="1" source="PoDpwjfyyqHmn3xEaWa9-14" target="PoDpwjfyyqHmn3xEaWa9-23">
          <mxGeometry width="50" height="50" relative="1" as="geometry">
            <mxPoint x="-161" y="-321" as="sourcePoint" />
            <mxPoint x="419" y="-587" as="targetPoint" />
          </mxGeometry>
        </mxCell>
        <mxCell id="PoDpwjfyyqHmn3xEaWa9-11" value="" style="group" vertex="1" connectable="0" parent="1">
          <mxGeometry x="150" y="-738.5" width="250" height="271" as="geometry" />
        </mxCell>
        <mxCell id="PoDpwjfyyqHmn3xEaWa9-12" value="" style="group" vertex="1" connectable="0" parent="PoDpwjfyyqHmn3xEaWa9-11">
          <mxGeometry width="250" height="250.1538461538462" as="geometry" />
        </mxCell>
        <mxCell id="PoDpwjfyyqHmn3xEaWa9-13" value="MemberVO&amp;nbsp;" style="swimlane;fontStyle=0;childLayout=stackLayout;horizontal=1;startSize=30;horizontalStack=0;resizeParent=1;resizeParentMax=0;resizeLast=0;collapsible=1;marginBottom=0;whiteSpace=wrap;html=1;container=0;" vertex="1" parent="PoDpwjfyyqHmn3xEaWa9-12">
          <mxGeometry x="10" y="-1.42" width="195.31" height="171.42" as="geometry">
            <mxRectangle x="100" y="80" width="140" height="30" as="alternateBounds" />
          </mxGeometry>
        </mxCell>
        <mxCell id="PoDpwjfyyqHmn3xEaWa9-14" value="&lt;div&gt;&amp;nbsp; - Long memberId&lt;/div&gt;&lt;div&gt;&amp;nbsp; - String email&lt;/div&gt;&lt;div&gt;&amp;nbsp; - boolean emailVerified&lt;/div&gt;&lt;div&gt;&amp;nbsp; - String username&lt;/div&gt;&lt;div&gt;&amp;nbsp; - String password&lt;/div&gt;&lt;div&gt;&amp;nbsp; - String name&lt;/div&gt;&lt;div&gt;&amp;nbsp; - boolean active&lt;/div&gt;&lt;div&gt;&amp;nbsp; - LocalDateTime createdAt&lt;/div&gt;&lt;div&gt;&amp;nbsp; - LocalDateTime updatedAt&lt;/div&gt;" style="text;strokeColor=none;fillColor=none;align=left;verticalAlign=middle;spacingLeft=4;spacingRight=4;overflow=hidden;points=[[0,0.5],[1,0.5]];portConstraint=eastwest;rotatable=0;whiteSpace=wrap;html=1;container=0;" vertex="1" parent="PoDpwjfyyqHmn3xEaWa9-12">
          <mxGeometry x="10" y="29.85" width="195.31" height="130.15" as="geometry" />
        </mxCell>
        <mxCell id="PoDpwjfyyqHmn3xEaWa9-15" value="" style="rounded=0;whiteSpace=wrap;html=1;align=left;container=0;" vertex="1" parent="PoDpwjfyyqHmn3xEaWa9-12">
          <mxGeometry x="10" y="169.9963076923077" width="195.31" height="20.846153846153847" as="geometry" />
        </mxCell>
        <mxCell id="PoDpwjfyyqHmn3xEaWa9-16" value="" style="group" vertex="1" connectable="0" parent="1">
          <mxGeometry x="100" y="-1110" width="314" height="170" as="geometry" />
        </mxCell>
        <mxCell id="PoDpwjfyyqHmn3xEaWa9-17" value="&amp;nbsp; + leave(request: MemberVO, user: CustomUserDetails): ResponseEntity&amp;lt;?&amp;gt;" style="rounded=0;whiteSpace=wrap;html=1;align=left;container=0;" vertex="1" parent="PoDpwjfyyqHmn3xEaWa9-16">
          <mxGeometry y="88.06" width="314" height="81.94" as="geometry" />
        </mxCell>
        <mxCell id="PoDpwjfyyqHmn3xEaWa9-18" value="LeaveController&amp;nbsp;" style="swimlane;fontStyle=0;childLayout=stackLayout;horizontal=1;startSize=30;horizontalStack=0;resizeParent=1;resizeParentMax=0;resizeLast=0;collapsible=1;marginBottom=0;whiteSpace=wrap;html=1;container=0;" vertex="1" parent="PoDpwjfyyqHmn3xEaWa9-16">
          <mxGeometry width="314" height="88.06" as="geometry">
            <mxRectangle x="100" y="80" width="140" height="30" as="alternateBounds" />
          </mxGeometry>
        </mxCell>
        <mxCell id="PoDpwjfyyqHmn3xEaWa9-19" value="&lt;div&gt;&amp;nbsp; - leaveService: LeaveService&lt;/div&gt;&lt;div&gt;&amp;nbsp; - passwordEncoder: PasswordEncoder&lt;/div&gt;" style="text;strokeColor=none;fillColor=none;align=left;verticalAlign=middle;spacingLeft=4;spacingRight=4;overflow=hidden;points=[[0,0.5],[1,0.5]];portConstraint=eastwest;rotatable=0;whiteSpace=wrap;html=1;container=0;" vertex="1" parent="PoDpwjfyyqHmn3xEaWa9-16">
          <mxGeometry y="30" width="314" height="58.06" as="geometry" />
        </mxCell>
        <mxCell id="PoDpwjfyyqHmn3xEaWa9-20" style="rounded=0;orthogonalLoop=1;jettySize=auto;html=1;edgeStyle=orthogonalEdgeStyle;" edge="1" parent="1" source="PoDpwjfyyqHmn3xEaWa9-17" target="PoDpwjfyyqHmn3xEaWa9-13">
          <mxGeometry relative="1" as="geometry" />
        </mxCell>
        <mxCell id="PoDpwjfyyqHmn3xEaWa9-21" value="" style="group" vertex="1" connectable="0" parent="1">
          <mxGeometry x="572" y="-708" width="250" height="120" as="geometry" />
        </mxCell>
        <mxCell id="PoDpwjfyyqHmn3xEaWa9-22" value="&lt;div&gt;&amp;lt;&amp;lt;interface&amp;gt;&amp;gt;&lt;/div&gt;LeaveMapper&amp;nbsp;" style="swimlane;fontStyle=0;childLayout=stackLayout;horizontal=1;startSize=30;horizontalStack=0;resizeParent=1;resizeParentMax=0;resizeLast=0;collapsible=1;marginBottom=0;whiteSpace=wrap;html=1;container=0;" vertex="1" parent="PoDpwjfyyqHmn3xEaWa9-21">
          <mxGeometry width="249.99999999999997" height="100" as="geometry">
            <mxRectangle x="100" y="80" width="140" height="30" as="alternateBounds" />
          </mxGeometry>
        </mxCell>
        <mxCell id="PoDpwjfyyqHmn3xEaWa9-23" value="&lt;div&gt;&amp;nbsp; + deactivateMember(memberId: Long): int&lt;/div&gt;&lt;div&gt;&amp;nbsp; + findById(memberId: Long): MemberVO&lt;/div&gt;" style="text;strokeColor=none;fillColor=none;align=left;verticalAlign=middle;spacingLeft=4;spacingRight=4;overflow=hidden;points=[[0,0.5],[1,0.5]];portConstraint=eastwest;rotatable=0;whiteSpace=wrap;html=1;container=0;" vertex="1" parent="PoDpwjfyyqHmn3xEaWa9-21">
          <mxGeometry y="28.639999999999986" width="249.99999999999997" height="71.36" as="geometry" />
        </mxCell>
        <mxCell id="PoDpwjfyyqHmn3xEaWa9-24" value="" style="rounded=0;whiteSpace=wrap;html=1;align=left;container=0;" vertex="1" parent="PoDpwjfyyqHmn3xEaWa9-21">
          <mxGeometry y="100" width="249.99999999999997" height="20" as="geometry" />
        </mxCell>
        <mxCell id="PoDpwjfyyqHmn3xEaWa9-33" value="" style="group" vertex="1" connectable="0" parent="1">
          <mxGeometry x="540" y="-1130" width="314" height="170" as="geometry" />
        </mxCell>
        <mxCell id="PoDpwjfyyqHmn3xEaWa9-34" value="&amp;nbsp; + deactivateMember(memberId: Long, inputPassword: String): boolean" style="rounded=0;whiteSpace=wrap;html=1;align=left;container=0;" vertex="1" parent="PoDpwjfyyqHmn3xEaWa9-33">
          <mxGeometry y="88.06" width="314" height="81.94" as="geometry" />
        </mxCell>
        <mxCell id="PoDpwjfyyqHmn3xEaWa9-35" value="LeaveService&amp;nbsp;" style="swimlane;fontStyle=0;childLayout=stackLayout;horizontal=1;startSize=30;horizontalStack=0;resizeParent=1;resizeParentMax=0;resizeLast=0;collapsible=1;marginBottom=0;whiteSpace=wrap;html=1;container=0;" vertex="1" parent="PoDpwjfyyqHmn3xEaWa9-33">
          <mxGeometry width="314" height="88.06" as="geometry">
            <mxRectangle x="100" y="80" width="140" height="30" as="alternateBounds" />
          </mxGeometry>
        </mxCell>
        <mxCell id="PoDpwjfyyqHmn3xEaWa9-36" value="&lt;div&gt;&amp;nbsp; - leaveMapper: LeaveMapper&lt;/div&gt;&lt;div&gt;&amp;nbsp; - passwordEncoder: PasswordEncoder&lt;/div&gt;" style="text;strokeColor=none;fillColor=none;align=left;verticalAlign=middle;spacingLeft=4;spacingRight=4;overflow=hidden;points=[[0,0.5],[1,0.5]];portConstraint=eastwest;rotatable=0;whiteSpace=wrap;html=1;container=0;" vertex="1" parent="PoDpwjfyyqHmn3xEaWa9-33">
          <mxGeometry y="30" width="314" height="58.06" as="geometry" />
        </mxCell>
        <mxCell id="PoDpwjfyyqHmn3xEaWa9-37" style="edgeStyle=orthogonalEdgeStyle;rounded=0;orthogonalLoop=1;jettySize=auto;html=1;entryX=0;entryY=0.25;entryDx=0;entryDy=0;exitX=1;exitY=0.5;exitDx=0;exitDy=0;" edge="1" parent="1" source="PoDpwjfyyqHmn3xEaWa9-17" target="PoDpwjfyyqHmn3xEaWa9-5">
          <mxGeometry relative="1" as="geometry" />
        </mxCell>
        <mxCell id="PoDpwjfyyqHmn3xEaWa9-38" style="edgeStyle=orthogonalEdgeStyle;rounded=0;orthogonalLoop=1;jettySize=auto;html=1;entryX=0.5;entryY=0;entryDx=0;entryDy=0;" edge="1" parent="1" source="PoDpwjfyyqHmn3xEaWa9-34" target="PoDpwjfyyqHmn3xEaWa9-3">
          <mxGeometry relative="1" as="geometry" />
        </mxCell>
        <mxCell id="PoDpwjfyyqHmn3xEaWa9-39" value="" style="group" vertex="1" connectable="0" parent="1">
          <mxGeometry x="537" y="-890" width="320" height="133.13" as="geometry" />
        </mxCell>
        <mxCell id="PoDpwjfyyqHmn3xEaWa9-3" value="&lt;div&gt;&amp;lt;&amp;lt;interface&amp;gt;&amp;gt;&lt;/div&gt;PasswordEncoder&amp;nbsp;" style="swimlane;fontStyle=0;childLayout=stackLayout;horizontal=1;startSize=30;horizontalStack=0;resizeParent=1;resizeParentMax=0;resizeLast=0;collapsible=1;marginBottom=0;whiteSpace=wrap;html=1;container=0;" vertex="1" parent="PoDpwjfyyqHmn3xEaWa9-39">
          <mxGeometry width="320" height="57" as="geometry">
            <mxRectangle x="100" y="80" width="140" height="30" as="alternateBounds" />
          </mxGeometry>
        </mxCell>
        <mxCell id="PoDpwjfyyqHmn3xEaWa9-5" value="&lt;div&gt;&amp;nbsp; + encode(rawPassword: CharSequence): String&lt;/div&gt;&lt;div&gt;&amp;nbsp; + matches(rawPassword: CharSequence, encodedPassword: String): boolean&lt;/div&gt;&lt;div&gt;&amp;nbsp; + upgradeEncoding(encodedPassword: String): boolean&lt;/div&gt;" style="rounded=0;whiteSpace=wrap;html=1;align=left;container=0;" vertex="1" parent="PoDpwjfyyqHmn3xEaWa9-39">
          <mxGeometry y="57" width="320" height="76.13" as="geometry" />
        </mxCell>
      </root>
    </mxGraphModel>
  </diagram>
</mxfile>
